<?xml version="1.0" encoding="UTF-8" standalone="no"?>
<svg
   xmlns:dc="http://purl.org/dc/elements/1.1/"
   xmlns:cc="http://creativecommons.org/ns#"
   xmlns:rdf="http://www.w3.org/1999/02/22-rdf-syntax-ns#"
   xmlns:svg="http://www.w3.org/2000/svg"
   xmlns="http://www.w3.org/2000/svg"
   xmlns:sodipodi="http://sodipodi.sourceforge.net/DTD/sodipodi-0.dtd"
   xmlns:inkscape="http://www.inkscape.org/namespaces/inkscape"
   viewBox="0 0 148.58 148.58"
   version="1.1"
   id="svg963"
   sodipodi:docname="favicon.svg"
   inkscape:version="1.0.2-2 (e86c870879, 2021-01-15)">
  <metadata
     id="metadata967">
    <rdf:RDF>
      <cc:Work
         rdf:about="">
        <dc:format>image/svg+xml</dc:format>
        <dc:type
           rdf:resource="http://purl.org/dc/dcmitype/StillImage" />
      </cc:Work>
    </rdf:RDF>
  </metadata>
  <sodipodi:namedview
     pagecolor="#ffffff"
     bordercolor="#666666"
     borderopacity="1"
     objecttolerance="10"
     gridtolerance="10"
     guidetolerance="10"
     inkscape:pageopacity="0"
     inkscape:pageshadow="2"
     inkscape:window-width="1920"
     inkscape:window-height="1057"
     id="namedview965"
     showgrid="false"
     inkscape:zoom="4.6035806"
     inkscape:cx="74.29"
     inkscape:cy="74.29"
     inkscape:window-x="1272"
     inkscape:window-y="-8"
     inkscape:window-maximized="1"
     inkscape:current-layer="svg963" />
  <defs
     id="defs903">
    <style
       id="style901">.cls-1{fill:#231f20;}.cls-2{fill:none;stroke:#231f20;stroke-miterlimit:10;stroke-width:3px;}</style>
  </defs>
  <g
     id="g1030"
     transform="matrix(1.4730191,0,0,1.4508761,-35.140588,-33.49559)">
    <circle
       class="cls-2"
       cx="74.290001"
       cy="74.290001"
       r="49.049999"
       id="circle911"
       style="opacity:1;fill:#fffffc;fill-opacity:1" />
    <path
       class="cls-1"
       d="m 58.49,41.78 v 11 h -0.87 a 13.8,13.8 0 0 0 -1.51,-5 7.84,7.84 0 0 0 -3.11,-3 8.5,8.5 0 0 0 -4.17,-1.1 5.63,5.63 0 0 0 -4,1.49 4.54,4.54 0 0 0 -1.6,3.38 4,4 0 0 0 1,2.65 c 1,1.17 3.28,2.74 6.92,4.69 a 47.61,47.61 0 0 1 6.08,3.67 9,9 0 0 1 2.51,3 8,8 0 0 1 0.88,3.63 8.21,8.21 0 0 1 -2.81,6.22 A 10.08,10.08 0 0 1 50.59,75 15.3,15.3 0 0 1 47.99,74.79 27.92,27.92 0 0 1 45,74 a 13.58,13.58 0 0 0 -2.89,-0.74 1.26,1.26 0 0 0 -0.93,0.35 2.9,2.9 0 0 0 -0.5,1.46 H 39.81 V 64.12 h 0.87 a 15.41,15.41 0 0 0 1.64,5.12 7.93,7.93 0 0 0 3.15,2.82 9.82,9.82 0 0 0 4.66,1.13 6.6,6.6 0 0 0 4.62,-1.55 4.76,4.76 0 0 0 1.67,-3.64 4.94,4.94 0 0 0 -0.64,-2.37 7.12,7.12 0 0 0 -2,-2.23 c -0.61,-0.47 -2.28,-1.46 -5,-3 A 47.62,47.62 0 0 1 43,56.76 a 9.83,9.83 0 0 1 -2.61,-3 7.48,7.48 0 0 1 -0.89,-3.61 7.8,7.8 0 0 1 2.62,-5.89 9.36,9.36 0 0 1 6.68,-2.48 13.53,13.53 0 0 1 5.35,1.22 5.36,5.36 0 0 0 1.85,0.59 1.41,1.41 0 0 0 1,-0.36 2.9,2.9 0 0 0 0.62,-1.47 z"
       id="path905" />
    <path
       class="cls-1"
       d="m 106,42.51 v 0.87 a 4,4 0 0 0 -2,0.44 4.35,4.35 0 0 0 -1.48,1.67 27.15,27.15 0 0 0 -1.47,3.91 L 92.21,75 H 91.27 L 84,54.7 76.83,75 H 76 L 66.54,48.63 c -0.7,-2 -1.15,-3.14 -1.33,-3.5 A 3.14,3.14 0 0 0 63.93,43.81 4.66,4.66 0 0 0 61.74,43.38 V 42.51 H 73.5 v 0.87 h -0.56 a 2.82,2.82 0 0 0 -1.9,0.56 1.71,1.71 0 0 0 -0.65,1.36 16,16 0 0 0 1,3.77 L 77.64,66.91 83,51.74 82,49.07 81.25,46.94 a 11.37,11.37 0 0 0 -1.1,-2.06 2.68,2.68 0 0 0 -0.75,-0.75 4.11,4.11 0 0 0 -1.17,-0.61 4.9,4.9 0 0 0 -1.41,-0.14 v -0.87 h 12.39 v 0.87 h -0.85 a 2.75,2.75 0 0 0 -1.92,0.56 2,2 0 0 0 -0.61,1.52 14.79,14.79 0 0 0 1.06,4.17 L 93,66.91 99,49.4 a 15,15 0 0 0 1,-4 1.73,1.73 0 0 0 -0.34,-1 1.86,1.86 0 0 0 -0.86,-0.66 7,7 0 0 0 -2.32,-0.32 v -0.87 z"
       id="path907" />
    <path
       class="cls-1"
       d="m 74.62,82 v 12.46 h 5.79 a 4.09,4.09 0 0 0 2.91,-0.88 5.8,5.8 0 0 0 1.23,-3.48 h 0.87 v 10.76 h -0.87 a 6.12,6.12 0 0 0 -0.48,-2.72 3,3 0 0 0 -1.26,-1.3 5.21,5.21 0 0 0 -2.4,-0.44 h -5.79 v 10 a 10.72,10.72 0 0 0 0.3,3.19 2.11,2.11 0 0 0 1,1 4.35,4.35 0 0 0 2.15,0.57 h 1.15 V 112 H 65.57 v -0.86 h 1.12 A 3.4,3.4 0 0 0 69.55,110 c 0.38,-0.5 0.57,-1.7 0.57,-3.61 V 85.86 a 10.28,10.28 0 0 0 -0.31,-3.19 2.06,2.06 0 0 0 -1,-1 4.4,4.4 0 0 0 -2.16,-0.56 h -1.08 v -0.87 h 23.65 l 0.3,7 H 88.7 A 9.37,9.37 0 0 0 87.28,84 4.53,4.53 0 0 0 85.28,82.49 10.45,10.45 0 0 0 81.62,82 Z"
       id="path909" />
  </g>
</svg>
