<svg xmlns="http://www.w3.org/2000/svg" viewBox="0 0 148.58 148.58"><defs><style>.cls-1{fill:#231f20;}.cls-2{fill:none;stroke:#231f20;stroke-miterlimit:10;stroke-width:3px;}</style></defs><g id="Layer_2" data-name="Layer 2"><g id="Layer_1-2" data-name="Layer 1"><path class="cls-1" d="M58.49,41.78v11h-.87a13.8,13.8,0,0,0-1.51-5,7.84,7.84,0,0,0-3.11-3,8.5,8.5,0,0,0-4.17-1.1,5.63,5.63,0,0,0-4,1.49,4.54,4.54,0,0,0-1.6,3.38,4,4,0,0,0,1,2.65c1,1.17,3.28,2.74,6.92,4.69a47.61,47.61,0,0,1,6.08,3.67,9,9,0,0,1,2.51,3,8,8,0,0,1,.88,3.63,8.21,8.21,0,0,1-2.81,6.22A10.08,10.08,0,0,1,50.59,75a15.3,15.3,0,0,1-2.6-.21A27.92,27.92,0,0,1,45,74a13.58,13.58,0,0,0-2.89-.74,1.26,1.26,0,0,0-.93.35,2.9,2.9,0,0,0-.5,1.46h-.87V64.12h.87a15.41,15.41,0,0,0,1.64,5.12,7.93,7.93,0,0,0,3.15,2.82,9.82,9.82,0,0,0,4.66,1.13,6.6,6.6,0,0,0,4.62-1.55A4.76,4.76,0,0,0,56.42,68a4.94,4.94,0,0,0-.64-2.37,7.12,7.12,0,0,0-2-2.23c-.61-.47-2.28-1.46-5-3A47.62,47.62,0,0,1,43,56.76a9.83,9.83,0,0,1-2.61-3,7.48,7.48,0,0,1-.89-3.61,7.8,7.8,0,0,1,2.62-5.89,9.36,9.36,0,0,1,6.68-2.48A13.53,13.53,0,0,1,54.15,43a5.36,5.36,0,0,0,1.85.59,1.41,1.41,0,0,0,1-.36,2.9,2.9,0,0,0,.62-1.47Z"/><path class="cls-1" d="M106,42.51v.87a4,4,0,0,0-2,.44,4.35,4.35,0,0,0-1.48,1.67,27.15,27.15,0,0,0-1.47,3.91L92.21,75h-.94L84,54.7,76.83,75H76L66.54,48.63c-.7-2-1.15-3.14-1.33-3.5a3.14,3.14,0,0,0-1.28-1.32,4.66,4.66,0,0,0-2.19-.43v-.87H73.5v.87h-.56a2.82,2.82,0,0,0-1.9.56,1.71,1.71,0,0,0-.65,1.36,16,16,0,0,0,1,3.77l6.25,17.84L83,51.74,82,49.07l-.75-2.13a11.37,11.37,0,0,0-1.1-2.06,2.68,2.68,0,0,0-.75-.75,4.11,4.11,0,0,0-1.17-.61,4.9,4.9,0,0,0-1.41-.14v-.87H89.21v.87h-.85a2.75,2.75,0,0,0-1.92.56,2,2,0,0,0-.61,1.52,14.79,14.79,0,0,0,1.06,4.17L93,66.91,99,49.4a15,15,0,0,0,1-4,1.73,1.73,0,0,0-.34-1,1.86,1.86,0,0,0-.86-.66,7,7,0,0,0-2.32-.32v-.87Z"/><path class="cls-1" d="M74.62,82V94.46h5.79a4.09,4.09,0,0,0,2.91-.88,5.8,5.8,0,0,0,1.23-3.48h.87v10.76h-.87a6.12,6.12,0,0,0-.48-2.72,3,3,0,0,0-1.26-1.3,5.21,5.21,0,0,0-2.4-.44H74.62v10a10.72,10.72,0,0,0,.3,3.19,2.11,2.11,0,0,0,1,1,4.35,4.35,0,0,0,2.15.57h1.15V112H65.57v-.86h1.12A3.4,3.4,0,0,0,69.55,110c.38-.5.57-1.7.57-3.61V85.86a10.28,10.28,0,0,0-.31-3.19,2.06,2.06,0,0,0-1-1,4.4,4.4,0,0,0-2.16-.56H65.57v-.87H89.22l.3,7H88.7A9.37,9.37,0,0,0,87.28,84a4.53,4.53,0,0,0-2-1.51A10.45,10.45,0,0,0,81.62,82Z"/><circle class="cls-2" cx="74.29" cy="74.29" r="49.05"/><circle class="cls-2" cx="74.29" cy="74.29" r="72.79"/><path class="cls-1" d="M13.86,44.82l3.78,1.62-.13.3a5.11,5.11,0,0,0-2-.22,2.86,2.86,0,0,0-1.48.63,3.22,3.22,0,0,0-1,1.27A2.11,2.11,0,0,0,13,50a1.69,1.69,0,0,0,.93,1,1.48,1.48,0,0,0,1.06.05,9.79,9.79,0,0,0,2.64-1.69,18.61,18.61,0,0,1,2.16-1.56,3.51,3.51,0,0,1,1.41-.41,3,3,0,0,1,1.39.23,3.11,3.11,0,0,1,1.72,1.89,3.77,3.77,0,0,1-.16,2.86,5.92,5.92,0,0,1-.46.87,8.57,8.57,0,0,1-.74.91,4.65,4.65,0,0,0-.68.89.44.44,0,0,0,0,.37,1.11,1.11,0,0,0,.43.39l-.13.3-3.76-1.61.13-.3a6,6,0,0,0,2,.19,3,3,0,0,0,1.44-.67,3.63,3.63,0,0,0,1.08-1.44,2.5,2.5,0,0,0,.15-1.82,1.84,1.84,0,0,0-1-1.13,1.92,1.92,0,0,0-.91-.12,2.71,2.71,0,0,0-1.07.36,19.12,19.12,0,0,0-1.76,1.28,20,20,0,0,1-2.12,1.46,3.66,3.66,0,0,1-1.42.45,2.91,2.91,0,0,1-1.38-.22,3,3,0,0,1-1.64-1.78,3.51,3.51,0,0,1,.14-2.67,5,5,0,0,1,1.22-1.66,2.13,2.13,0,0,0,.48-.56.49.49,0,0,0,0-.39,1.06,1.06,0,0,0-.41-.43Z"/><path class="cls-1" d="M17.79,40.84l2.28,1.33L21,40.55l.53.31-.95,1.62,4.51,2.63a1.69,1.69,0,0,0,1,.34.68.68,0,0,0,.52-.36,1,1,0,0,0,.13-.57,1.18,1.18,0,0,0-.24-.64l.17-.29A2.76,2.76,0,0,1,27.4,45a1.88,1.88,0,0,1-.21,1.22,1.54,1.54,0,0,1-.59.57,1.31,1.31,0,0,1-.85.17,3.16,3.16,0,0,1-1.2-.49l-4.68-2.73-.64,1.1L19,44.69a3.3,3.3,0,0,0-.07-1.19,5.12,5.12,0,0,0-.49-1.33,10.43,10.43,0,0,0-.77-1.1Z"/><path class="cls-1" d="M29.79,40.08a11.62,11.62,0,0,1,0,1.9,2.39,2.39,0,0,1-.42,1,1.83,1.83,0,0,1-1.28.77,2.11,2.11,0,0,1-1.53-.46,1.83,1.83,0,0,1-.66-.82,3.45,3.45,0,0,1-.17-1.67,20,20,0,0,1,.73-3.15l-.25-.19a2.66,2.66,0,0,0-1.56-.67,1.4,1.4,0,0,0-1,.63,1.23,1.23,0,0,0-.28.88.91.91,0,0,0,.35.68l.42.28a.84.84,0,0,1,.38.54.74.74,0,0,1-.64.86.9.9,0,0,1-.63-.21A1.78,1.78,0,0,1,22.55,39a3.25,3.25,0,0,1,.78-2.12,3.59,3.59,0,0,1,1.33-1.2,1.64,1.64,0,0,1,1.14-.11,4.72,4.72,0,0,1,1.34.79l2.2,1.62a11.54,11.54,0,0,0,1.16.8.6.6,0,0,0,.37.09.39.39,0,0,0,.21-.13.59.59,0,0,0,.09-.24,6,6,0,0,0-.09-1l.39.29a2.64,2.64,0,0,1,0,2.3.86.86,0,0,1-.65.37A1.61,1.61,0,0,1,29.79,40.08Zm-.46-.34-2.47-1.82a15.77,15.77,0,0,0-.41,1.82A2.89,2.89,0,0,0,26.51,41a1.62,1.62,0,0,0,.56.79,1.55,1.55,0,0,0,1.07.32,1.15,1.15,0,0,0,.86-.46A3.2,3.2,0,0,0,29.33,39.74Z"/><path class="cls-1" d="M26.16,29.63l1.95,1.79L29.39,30l.45.41-1.27,1.39,3.85,3.52a1.67,1.67,0,0,0,.93.55.68.68,0,0,0,.59-.24,1,1,0,0,0,.24-.53,1.14,1.14,0,0,0-.1-.67l.23-.26a2.8,2.8,0,0,1,.36,1.52,1.82,1.82,0,0,1-.46,1.15,1.51,1.51,0,0,1-.7.43,1.33,1.33,0,0,1-.86,0,3.42,3.42,0,0,1-1.07-.73l-4-3.66-.86.94-.22-.2a3.37,3.37,0,0,0,.19-1.17,5.39,5.39,0,0,0-.2-1.41A10.19,10.19,0,0,0,26,29.84Z"/><path class="cls-1" d="M28.55,24.71a.91.91,0,0,1,1.26.05.94.94,0,0,1,.24.64A.89.89,0,0,1,28.5,26a.83.83,0,0,1-.24-.63A.89.89,0,0,1,28.55,24.71Zm3.4,2.6,4.39,4.74a3.05,3.05,0,0,0,.76.67.8.8,0,0,0,.5.05,1.75,1.75,0,0,0,.66-.44l.21.23L35.6,35.22,35.39,35a1.73,1.73,0,0,0,.5-.62.76.76,0,0,0,0-.49,2.75,2.75,0,0,0-.6-.82l-2.11-2.28A9.93,9.93,0,0,0,32,29.58a.74.74,0,0,0-.41-.16.53.53,0,0,0-.33.17,1.61,1.61,0,0,0-.35.5l-.31-.15,1.11-2.37Z"/><path class="cls-1" d="M42.36,25.73a4.32,4.32,0,0,1,.44,2.72,3,3,0,0,1-1.17,1.94,3.08,3.08,0,0,1-2.6.51A4.54,4.54,0,0,1,36.35,29a4.3,4.3,0,0,1-.94-3.15,3.6,3.6,0,0,1,1.47-2.58,3,3,0,0,1,1.94-.66,1.75,1.75,0,0,1,1.39.59.74.74,0,0,1,.15.56.83.83,0,0,1-.36.53,1,1,0,0,1-.83.2,1.47,1.47,0,0,1-.58-.45,1.11,1.11,0,0,0-.75-.42,1.24,1.24,0,0,0-.84.3,1.75,1.75,0,0,0-.75,1.37A3.48,3.48,0,0,0,37,27.56a4.61,4.61,0,0,0,2.09,1.62,2.19,2.19,0,0,0,2.19-.26,2.37,2.37,0,0,0,.89-1.4,4.11,4.11,0,0,0-.13-1.74Z"/><path class="cls-1" d="M118.32,23.27l-.18.27a1.4,1.4,0,0,0-.72-.28,1.55,1.55,0,0,0-.81.21,9.35,9.35,0,0,0-1.27.91l-8.09,6.15-.29-.19,2-7.85-6.47,4.84-.26-.17L104.73,17c.19-.76.29-1.21.31-1.36a1.28,1.28,0,0,0-.12-.68,1.69,1.69,0,0,0-.6-.59l.18-.28,3.67,2.45-.18.28-.17-.12a1.07,1.07,0,0,0-.71-.22.62.62,0,0,0-.49.29,6,6,0,0,0-.46,1.39L104.4,25l4.8-3.64.26-1,.21-.82a4.59,4.59,0,0,0,.09-.87,1.23,1.23,0,0,0-.08-.39,2,2,0,0,0-.24-.44,1.78,1.78,0,0,0-.41-.33l.18-.27,3.86,2.57-.18.27-.26-.17a1.1,1.1,0,0,0-.72-.23.8.8,0,0,0-.51.35,6.2,6.2,0,0,0-.54,1.52l-1.69,6.66L114.7,24a5.33,5.33,0,0,0,1.16-1.05.69.69,0,0,0,0-.76,2.54,2.54,0,0,0-.65-.59l.18-.27Z"/><path class="cls-1" d="M114.5,29.74a4.16,4.16,0,0,0-1.33,2.63,2.65,2.65,0,0,0,.78,2.17,2.26,2.26,0,0,0,1.29.64,3.26,3.26,0,0,0,1.74-.39l.07.32a4.19,4.19,0,0,1-2.29.83,2.87,2.87,0,0,1-2.29-.84,3.25,3.25,0,0,1-1-2.53,4.36,4.36,0,0,1,1.37-2.91,4.57,4.57,0,0,1,3-1.57,3.45,3.45,0,0,1,2.72,1,3,3,0,0,1,1,2.19,3.24,3.24,0,0,1-1,2.32Zm.36-.36L117.53,32a3.54,3.54,0,0,0,.63-.91,1.84,1.84,0,0,0,.07-1,1.65,1.65,0,0,0-.46-.84,1.83,1.83,0,0,0-1.33-.5A2.42,2.42,0,0,0,114.86,29.38Z"/><path class="cls-1" d="M121.82,35a3.23,3.23,0,0,1,2.83,1,2.8,2.8,0,0,1,.5,2.35,4.25,4.25,0,0,1-1.72,2.51,4.48,4.48,0,0,1-3.6,1,3.9,3.9,0,0,1-2.56-1.45,4.24,4.24,0,0,1-.68-1.28,6.29,6.29,0,0,1-.31-1.64l6.58-5.13a12.49,12.49,0,0,0,1.29-1.09.74.74,0,0,0,.21-.43.54.54,0,0,0-.13-.35,1.78,1.78,0,0,0-.49-.4l.17-.28,2.26,1.3.25.31Zm-.45.34-3.8,3a3.56,3.56,0,0,0,.05,1.14,2.32,2.32,0,0,0,.43.91,1.92,1.92,0,0,0,1.61.63,4.08,4.08,0,0,0,2.44-1,3.6,3.6,0,0,0,1.45-2,2,2,0,0,0-.31-1.74,2,2,0,0,0-.76-.59A4.18,4.18,0,0,0,121.37,35.37Z"/><path class="cls-1" d="M130,44.2l-2.36,1.39-.15-.25a3.55,3.55,0,0,0,1.08-1.63,1.94,1.94,0,0,0-.27-1.38,1.49,1.49,0,0,0-.79-.69.91.91,0,0,0-.81,0,1.32,1.32,0,0,0-.59.67,3.22,3.22,0,0,0-.09,1.34l.11,1.42a2.62,2.62,0,0,1-1.07,2.7,2.18,2.18,0,0,1-2,.18,2.84,2.84,0,0,1-1.52-1.26,6.27,6.27,0,0,1-.63-1.59,2,2,0,0,0-.17-.45.35.35,0,0,0-.36-.16l-.14-.25,2.48-1.45.14.25a3.24,3.24,0,0,0-1.12,1.75,2.27,2.27,0,0,0,.25,1.65,1.38,1.38,0,0,0,.81.67,1.12,1.12,0,0,0,.93-.1,1.38,1.38,0,0,0,.67-.88,7.61,7.61,0,0,0,0-2,5.17,5.17,0,0,1,.14-2,2,2,0,0,1,.89-1,2.24,2.24,0,0,1,1.78-.25,2.39,2.39,0,0,1,1.47,1.18,4,4,0,0,1,.41,1.09,2.89,2.89,0,0,0,.19.58.29.29,0,0,0,.17.16.73.73,0,0,0,.32,0Z"/><path class="cls-1" d="M132.08,48.54l-5.87,2.72a2.84,2.84,0,0,0-.87.52.71.71,0,0,0-.2.45,1.65,1.65,0,0,0,.22.76l-.29.14-1.64-3.55.28-.14a1.79,1.79,0,0,0,.44.67.83.83,0,0,0,.48.14,3.14,3.14,0,0,0,1-.32l2.81-1.3a10.6,10.6,0,0,0,1.51-.78.72.72,0,0,0,.27-.34.5.5,0,0,0-.05-.37,1.66,1.66,0,0,0-.37-.49l.24-.25,1.91,1.79Zm3.52-2.42a.9.9,0,0,1-1.12,1.21.9.9,0,0,1-.53-1.15.86.86,0,0,1,.47-.5.79.79,0,0,1,.67,0A.87.87,0,0,1,135.6,46.12Z"/><path class="cls-1" d="M136.1,52.12l-2.48.91.64,1.76-.57.21L133,53.24,128.14,55a1.8,1.8,0,0,0-.92.57.72.72,0,0,0,0,.64.93.93,0,0,0,.36.46,1.2,1.2,0,0,0,.64.22l.12.32a2.85,2.85,0,0,1-1.52-.37,1.88,1.88,0,0,1-.8-.94,1.42,1.42,0,0,1-.06-.82,1.31,1.31,0,0,1,.4-.76,3.38,3.38,0,0,1,1.15-.62l5.08-1.86-.43-1.19.27-.1a3.3,3.3,0,0,0,1,.7,5.18,5.18,0,0,0,1.34.47,9.31,9.31,0,0,0,1.34.11Z"/><path class="cls-1" d="M132,57.78a4.11,4.11,0,0,0-2.52,1.53,2.65,2.65,0,0,0-.49,2.25,2.25,2.25,0,0,0,.76,1.23,3.28,3.28,0,0,0,1.68.59l-.11.3a4.08,4.08,0,0,1-2.38-.51,2.84,2.84,0,0,1-1.5-1.92,3.24,3.24,0,0,1,.5-2.68,4.32,4.32,0,0,1,2.7-1.74,4.65,4.65,0,0,1,3.38.25,3.46,3.46,0,0,1,1.76,2.31,3,3,0,0,1-.33,2.37,3.26,3.26,0,0,1-2.11,1.42Zm.5-.12.9,3.61a3.42,3.42,0,0,0,1-.44,1.77,1.77,0,0,0,.65-1.77,1.83,1.83,0,0,0-.87-1.13A2.46,2.46,0,0,0,132.5,57.66Z"/><path class="cls-1" d="M42.85,120.2l-2.55,3.93,1.82,1.19a1.57,1.57,0,0,0,1.09.32,2.16,2.16,0,0,0,1.1-.85l.27.18-2.2,3.38-.27-.17a2.5,2.5,0,0,0,.41-1,1.15,1.15,0,0,0-.14-.66,1.83,1.83,0,0,0-.66-.63l-1.82-1.19-2,3.14a4,4,0,0,0-.56,1.06.8.8,0,0,0,.11.52,1.6,1.6,0,0,0,.56.62l.36.24-.18.27-4.28-2.79.17-.28.36.23a1.26,1.26,0,0,0,1.13.23c.22-.08.52-.42.91-1l4.2-6.46a3.89,3.89,0,0,0,.56-1.06.76.76,0,0,0-.1-.51,1.53,1.53,0,0,0-.56-.62l-.35-.23.17-.27,7.43,4.84-1.33,2.26-.26-.17a3.71,3.71,0,0,0,.23-1.32,1.8,1.8,0,0,0-.32-.88,4,4,0,0,0-1.06-.9Z"/><path class="cls-1" d="M50.34,127.79a3.58,3.58,0,0,1,2.11,2.47,4.25,4.25,0,0,1-.26,2.87,5.2,5.2,0,0,1-1.36,1.79,3.68,3.68,0,0,1-4.07.62,3.39,3.39,0,0,1-2-2.51,4.5,4.5,0,0,1,.29-2.87,4.84,4.84,0,0,1,1.4-1.78,3.65,3.65,0,0,1,3.93-.59Zm-.49.41a1.78,1.78,0,0,0-1-.13,1.89,1.89,0,0,0-1.09.58,4.55,4.55,0,0,0-1,1.51,6.16,6.16,0,0,0-.6,3.05,2.1,2.1,0,0,0,1.16,1.92,1.71,1.71,0,0,0,1.57-.07,4,4,0,0,0,1.49-2,5.46,5.46,0,0,0,.54-3.46A1.9,1.9,0,0,0,49.85,128.2Z"/><path class="cls-1" d="M61.41,131.8l-1.32,4.7a12.19,12.19,0,0,0-.4,1.66.82.82,0,0,0,.09.48.53.53,0,0,0,.29.21,1.61,1.61,0,0,0,.63,0l0,.33-2.59.31-.38-.11.46-1.64a7.1,7.1,0,0,1-1.91.93,2.36,2.36,0,0,1-1.18,0,1.83,1.83,0,0,1-1-.69,2,2,0,0,1-.39-1.15,6.27,6.27,0,0,1,.28-1.73l1-3.46a1.71,1.71,0,0,0,.1-.8.85.85,0,0,0-.26-.42,2.1,2.1,0,0,0-.81-.34l.08-.32,2.72.76-1.45,5.19a2,2,0,0,0,0,1.53,1.39,1.39,0,0,0,.82.59,1.9,1.9,0,0,0,.89,0,4.41,4.41,0,0,0,1.34-.56l1.23-4.39a1.29,1.29,0,0,0,0-1,1.62,1.62,0,0,0-.93-.53l.08-.32Z"/><path class="cls-1" d="M65.17,133.94a3.76,3.76,0,0,1,2.89-1.36,2,2,0,0,1,1.09.46,2.24,2.24,0,0,1,.61,1.18,5.1,5.1,0,0,1,0,1.62l-.43,3.41a3,3,0,0,0,0,1.05.79.79,0,0,0,.27.38,1.77,1.77,0,0,0,.77.22l0,.31-4-.49,0-.32.17,0a1.27,1.27,0,0,0,.8-.07.87.87,0,0,0,.37-.46,4.62,4.62,0,0,0,.14-.82l.41-3.27a3.2,3.2,0,0,0-.08-1.61,1,1,0,0,0-.89-.62,2.93,2.93,0,0,0-2.21.88l-.53,4.21a3,3,0,0,0,0,1,.77.77,0,0,0,.29.41,2.06,2.06,0,0,0,.85.23l0,.31-4-.49,0-.32.17,0a.9.9,0,0,0,.86-.2,2.35,2.35,0,0,0,.37-1.16l.37-3a15.17,15.17,0,0,0,.16-1.76.8.8,0,0,0-.15-.46.54.54,0,0,0-.35-.15,1.9,1.9,0,0,0-.6,0l-.09-.33L65,132.2l.37,0Z"/><path class="cls-1" d="M77.51,140.22a4.24,4.24,0,0,1-1.14.91,2.59,2.59,0,0,1-1.2.29,3,3,0,0,1-2.33-1,4.13,4.13,0,0,1-1-2.81,5.19,5.19,0,0,1,1-3.19,3.4,3.4,0,0,1,2.77-1.5,2.47,2.47,0,0,1,1.78.64l0-1.49a12.14,12.14,0,0,0-.1-1.69.75.75,0,0,0-.22-.43.5.5,0,0,0-.35-.1,1.73,1.73,0,0,0-.6.15l-.13-.3,2.38-1h.4l.2,9.31a11.66,11.66,0,0,0,.11,1.72.75.75,0,0,0,.22.43.52.52,0,0,0,.34.12,2,2,0,0,0,.63-.17l.1.31-2.37,1h-.4Zm0-.61-.09-4.15a2.74,2.74,0,0,0-.34-1.08,1.75,1.75,0,0,0-.72-.73,1.63,1.63,0,0,0-.85-.23,1.77,1.77,0,0,0-1.36.72,3.93,3.93,0,0,0-.74,2.69,4.14,4.14,0,0,0,.83,2.7,2.23,2.23,0,0,0,1.74.91A2.12,2.12,0,0,0,77.49,139.61Z"/><path class="cls-1" d="M86,139a14.91,14.91,0,0,1-1.36,1.35,2.35,2.35,0,0,1-1,.37,1.8,1.8,0,0,1-1.45-.34,2.09,2.09,0,0,1-.78-1.4,1.94,1.94,0,0,1,.1-1.05,3.51,3.51,0,0,1,1-1.31,19.62,19.62,0,0,1,2.73-1.74l0-.31a2.65,2.65,0,0,0-.65-1.57,1.39,1.39,0,0,0-1.17-.26,1.26,1.26,0,0,0-.82.43.9.9,0,0,0-.22.73l.1.5a.86.86,0,0,1-.1.65.67.67,0,0,1-.5.3.66.66,0,0,1-.56-.14.86.86,0,0,1-.3-.58,1.73,1.73,0,0,1,.54-1.49,3.28,3.28,0,0,1,2-1,3.74,3.74,0,0,1,1.79.07,1.7,1.7,0,0,1,.89.72,4.71,4.71,0,0,1,.41,1.5l.44,2.7a10.52,10.52,0,0,0,.27,1.38.5.5,0,0,0,.2.32.29.29,0,0,0,.24.05.37.37,0,0,0,.23-.1,5,5,0,0,0,.6-.74l.08.48c-.51,1-1,1.51-1.64,1.6a.84.84,0,0,1-.73-.18A1.6,1.6,0,0,1,86,139Zm-.09-.56-.5-3c-.81.49-1.34.83-1.57,1a3,3,0,0,0-.85,1,1.61,1.61,0,0,0-.15,1,1.51,1.51,0,0,0,.55,1,1.16,1.16,0,0,0,.92.27A3.18,3.18,0,0,0,85.89,138.43Z"/><path class="cls-1" d="M89.56,128.39l.7,2.55,1.82-.5.16.6-1.82.49,1.39,5a1.68,1.68,0,0,0,.49,1,.71.71,0,0,0,.63.12,1,1,0,0,0,.49-.33,1.07,1.07,0,0,0,.27-.62l.33-.09a2.75,2.75,0,0,1-.5,1.48,1.86,1.86,0,0,1-1,.73,1.63,1.63,0,0,1-.82,0,1.34,1.34,0,0,1-.72-.47,3.36,3.36,0,0,1-.52-1.19L89,131.92l-1.23.33-.08-.28a3.15,3.15,0,0,0,.78-.89,5.4,5.4,0,0,0,.58-1.29,10.75,10.75,0,0,0,.22-1.33Z"/><path class="cls-1" d="M93.06,125.36a.89.89,0,0,1,.68,0,.87.87,0,0,1,.46.5.89.89,0,0,1,0,.68.86.86,0,0,1-.5.47.89.89,0,0,1-.68,0,.9.9,0,0,1-.47-.51.89.89,0,0,1,0-.68A.86.86,0,0,1,93.06,125.36Zm2.13,3.71,2.22,6.07a3,3,0,0,0,.44.91.84.84,0,0,0,.44.24,1.62,1.62,0,0,0,.78-.16l.11.3-3.67,1.34-.11-.29a1.91,1.91,0,0,0,.7-.38.79.79,0,0,0,.17-.47,2.7,2.7,0,0,0-.23-1L95,132.73a13,13,0,0,0-.65-1.57.74.74,0,0,0-.32-.3.56.56,0,0,0-.38,0,2,2,0,0,0-.51.33l-.23-.25,1.94-1.76Z"/><path class="cls-1" d="M100.57,126.68a3.58,3.58,0,0,1,3.25-.07,4.23,4.23,0,0,1,2.06,2,5.12,5.12,0,0,1,.52,2.19,3.71,3.71,0,0,1-2.09,3.55,3.42,3.42,0,0,1-3.23,0,4.55,4.55,0,0,1-2-2.05,4.85,4.85,0,0,1-.49-2.21,3.65,3.65,0,0,1,2-3.42Zm0,.64a1.88,1.88,0,0,0-.72.66,2,2,0,0,0-.24,1.21,4.92,4.92,0,0,0,.54,1.73,6.23,6.23,0,0,0,2,2.4,2.07,2.07,0,0,0,2.21.31,1.73,1.73,0,0,0,.94-1.26,3.94,3.94,0,0,0-.59-2.41,5.48,5.48,0,0,0-2.33-2.6A1.89,1.89,0,0,0,100.59,127.32Z"/><path class="cls-1" d="M107.68,124.55a3.83,3.83,0,0,1,1.22-3,2,2,0,0,1,1.12-.39,2.17,2.17,0,0,1,1.24.46,4.83,4.83,0,0,1,1.09,1.21l2,2.81a2.83,2.83,0,0,0,.69.78.8.8,0,0,0,.46.1,1.94,1.94,0,0,0,.72-.36l.18.26-3.25,2.29-.19-.26.14-.09a1.29,1.29,0,0,0,.54-.6.87.87,0,0,0,0-.59,5.14,5.14,0,0,0-.45-.7l-1.89-2.69a3.36,3.36,0,0,0-1.15-1.14,1,1,0,0,0-1.08.15,2.86,2.86,0,0,0-1,2.13l2.44,3.47a2.68,2.68,0,0,0,.66.77.74.74,0,0,0,.49.11,1.93,1.93,0,0,0,.78-.4l.19.26-3.26,2.29-.18-.26.14-.1a1,1,0,0,0,.5-.73,2.21,2.21,0,0,0-.51-1.1l-1.72-2.45a11,11,0,0,0-1.07-1.4.72.72,0,0,0-.41-.24.52.52,0,0,0-.36.12,1.61,1.61,0,0,0-.41.44l-.29-.18,1.42-2.2.31-.22Z"/></g></g></svg>