<svg xmlns="http://www.w3.org/2000/svg" viewBox="0 0 1874.8 441.31"><defs><style>.cls-1{fill:#00aff0;}.cls-2{fill:#313131;}</style></defs><title>Risorsa 2</title><g id="Livello_2" data-name="Livello 2"><g id="Layer_1" data-name="Layer 1"><path class="cls-1" d="M1476.05,230.37q-9.88,13.23-22.18,29.26t-26.1,32.65q-13.82,16.61-26.65,30.2a261.38,261.38,0,0,1-23.51,22.36q-10.78,8.81-17,8.77c-5.71,0-8.3-2.73-7.84-8.2A57.73,57.73,0,0,1,1360,325.1a278.84,278.84,0,0,1,15.75-26.68c6.37-9.7,12.55-18.69,18.66-27S1405.69,256,1410,250.1a46.54,46.54,0,0,0,6.54-9.88c0-1-.75-2.05-2.22-3.17a38.78,38.78,0,0,0-5.61-3.34c-2.23-1.12-4.61-2.16-7.19-3.16a41.53,41.53,0,0,0-7.19-2.23,60.19,60.19,0,0,0,4.09-20.53,73.55,73.55,0,0,0-2-18,38.87,38.87,0,0,0-6.5-14.16,30.32,30.32,0,0,0-11.76-9.35,43.11,43.11,0,0,0-18-3.35,103.48,103.48,0,0,0-40.66,8.2A155,155,0,0,0,1283.16,193a199.44,199.44,0,0,0-31,31.14,252.8,252.8,0,0,0-23.87,35.63,193.81,193.81,0,0,0-15.25,35.7,107.91,107.91,0,0,0-5.39,31.31,69.38,69.38,0,0,0,4.85,27.62,51,51,0,0,0,12.48,18,46.65,46.65,0,0,0,16.61,9.89,52.23,52.23,0,0,0,16.75,3,40.11,40.11,0,0,0,20.71-5.78,92,92,0,0,0,17.4-12.7,107.1,107.1,0,0,0,15.68-19,52.22,52.22,0,0,0,1.11,19,28.1,28.1,0,0,0,7.66,12.88c3.85,3.88,10,5.78,18.44,5.78q9.72,0,23.48-10.06a243.9,243.9,0,0,0,29.3-25.75Q1407.67,334,1424,314.35t31-38.43q14.57-18.81,26.5-35.24t18.62-25.74a5.67,5.67,0,0,0,1.12-4.28,3.6,3.6,0,0,0-2-2.8,7.18,7.18,0,0,0-4.1-.36,6.46,6.46,0,0,0-4.28,3q-4.85,6.61-14.74,19.89ZM1246.56,353.43a76,76,0,0,1,1.48-33,220,220,0,0,1,15.1-42.89,238.41,238.41,0,0,1,25.45-42.9,157.15,157.15,0,0,1,32.65-33,60.81,60.81,0,0,1,36.53-13.27,12.69,12.69,0,0,1,11.39,5.43,25.19,25.19,0,0,1,3.6,14,53.6,53.6,0,0,1-5.22,23.29,126.67,126.67,0,0,1-11.36,19.6,138.32,138.32,0,0,1-11.21,14,27.85,27.85,0,0,0-5,6.15,13.15,13.15,0,0,0,2.45,4.1,81.28,81.28,0,0,0,5.39,6.72q-10,14.39-21.07,29.66a320.57,320.57,0,0,1-22.18,27.4,144.55,144.55,0,0,1-22,20.17,35.41,35.41,0,0,1-20.5,7.8C1253.65,366.73,1248.54,362.28,1246.56,353.43Z"/><path class="cls-1" d="M1581.39,375.25a226.34,226.34,0,0,0,29.66-25.74q15.5-15.63,31.5-35.23t30.2-38.43q14.16-18.81,25.74-35.24t18.26-25.74a5.67,5.67,0,0,0,1.12-4.28,3.6,3.6,0,0,0-2-2.8,7.18,7.18,0,0,0-4.1-.36,6.43,6.43,0,0,0-4.28,3q-4.85,6.69-14.74,20t-22.18,29.26q-12.3,16-26.1,32.65t-26.68,30.2a257.75,257.75,0,0,1-23.55,22.36q-10.79,8.81-17,8.77-7.44,0-8.2-4.85a25.14,25.14,0,0,1,3.17-13.23,138.33,138.33,0,0,1,11.75-19.6q7.85-11.18,17-23.83c6.08-8.49,12.3-17.23,18.63-26.32s12.11-18,17.36-26.68a196,196,0,0,0,12.84-25.17,55,55,0,0,0,5-21.24,37.25,37.25,0,0,0-5.57-22q-5.61-7.83-18.27-7.83a54.45,54.45,0,0,0-25.56,7.19,160.08,160.08,0,0,0-27,18.48,327.77,327.77,0,0,0-25.71,23.87q-12.33,12.69-22,23.87t-15.86,18.45a37.61,37.61,0,0,1-6.9,7.19c-.76,0,.32-2.74,3.16-8.24s6.22-12,10.07-19.56,7.41-15.53,10.78-23.87a60.92,60.92,0,0,0,4.86-21.57,20.38,20.38,0,0,0-5.25-14.38,35.48,35.48,0,0,0-11.36-8.41,30.26,30.26,0,0,0-11.18-3c-3.35,0-5,.33-5,1.33a92.94,92.94,0,0,1-7.65,31.89,460.69,460.69,0,0,1-19.2,42.14q-11.55,22.55-25,45.69T1427,326.22q-11.54,18.82-19.2,30.95a86.09,86.09,0,0,0-7.76,13.16,7.54,7.54,0,0,0,1.65,3.59,24.52,24.52,0,0,0,5,5,34.74,34.74,0,0,0,7.84,4.46,24.87,24.87,0,0,0,9.71,1.87c2,0,5.53-2.81,10.78-8.38s11.33-13,18.66-22.22,15.54-19.7,24.6-31.49,18.4-23.88,28-36.21,19.27-24.34,29.08-36.17,19.24-22.29,28.15-31.49a217,217,0,0,1,24.63-22.22q11.14-8.34,18.66-8.38c6.18,0,8.49,2.55,6.87,7.66a79.79,79.79,0,0,1-11.36,20.13q-9,12.51-22,29.09t-25,34.3a282.25,282.25,0,0,0-20.5,35.63,78.09,78.09,0,0,0-8.59,33.58,42.22,42.22,0,0,0,3,18.26,31.64,31.64,0,0,0,9,12.3,26.78,26.78,0,0,0,18.26,5.61q10.79,0,25-10Z"/><path class="cls-2" d="M397.47,250.41c0-93.6,49-159.75,118.79-159.75s118.8,66.15,118.8,159.75c0,94-49,160.2-118.8,160.2S397.47,344.46,397.47,250.41Zm221.39,0c0-84.15-42.3-143.55-102.6-143.55s-102.59,59.4-102.59,143.55,42.29,144,102.59,144S618.86,334.56,618.86,250.41Z"/><path class="cls-2" d="M700.31,90.66h16.2V405.21h-16.2Z"/><path class="cls-2" d="M977.06,362.46l11.25,12.15c-19.35,21.15-59.85,36-97.2,36-62.1,0-114.3-55.8-114.3-122.4,0-67.95,50.4-121,114.3-121,66.6,0,110.7,51.75,110.7,129.15H793.46c3.6,54,47.25,98.1,97.65,98.1C924.41,394.41,957.71,383.61,977.06,362.46Zm-183.6-82.35H985.61c-2.7-58.05-39.6-96.75-94.5-96.75C838.91,183.36,797.06,225.66,793.46,280.11Z"/><path class="cls-1" d="M1854.17,224.58q-6.51,8.94-14.92,20.31t-18,24.05q-9.7,12.74-19.78,24.63c-6.68,7.95-13.23,15.42-19.55,22.36a176.29,176.29,0,0,1-18,17.55,82.27,82.27,0,0,0,2.8-12.87,99.39,99.39,0,0,0,.94-13.23,174,174,0,0,0-3-31.89c-2-10.57-4.18-21.25-6.55-32.07s-4.53-21.58-6.51-32.65a182.79,182.79,0,0,1-3-33.18,42,42,0,0,1,4.46-19.78,100.94,100.94,0,0,1,9.71-15.31c3.59-4.46,6.68-8.49,9.67-12.12a16.16,16.16,0,0,0,4.49-9.89,6.76,6.76,0,0,0-3.34-5.39,14.42,14.42,0,0,0-8.6-2.41,58.72,58.72,0,0,0-22,4.46,68.34,68.34,0,0,0-34.87,31.31,48.48,48.48,0,0,0-5.76,23.16,183.13,183.13,0,0,0,3.17,29.26c2.08,12.3,4.35,25.6,6.69,39.91s4.24,28.76,5.6,43.14a199.5,199.5,0,0,1,0,39.55,63.7,63.7,0,0,1-9.31,28.77c-5,7.47-12.8,11.18-23.51,11.18s-18-2.77-22.18-8.38a29.45,29.45,0,0,1-6.51-18.48,12.71,12.71,0,0,0-2.23-8,5.76,5.76,0,0,0-4.85-2.59,6.64,6.64,0,0,0-4.86,3.6,19.11,19.11,0,0,0-2.23,10.46,50.63,50.63,0,0,0,2.77,16,40.88,40.88,0,0,0,8.6,14.38,44.65,44.65,0,0,0,14.74,10.46,50.64,50.64,0,0,0,21.24,4.1h5.58a73.81,73.81,0,0,0,35.95-10.07,195.34,195.34,0,0,0,36-25.74A342.23,342.23,0,0,0,1801,314q16.11-19.14,30.06-38.11t25-35.24q11-16.4,17.72-25.74a5.09,5.09,0,0,0,.9-4.28,4,4,0,0,0-2.23-2.8,6.66,6.66,0,0,0-3.92-.36,6.55,6.55,0,0,0-4.1,3q-3.71,5.33-10.24,14.17Z"/><path class="cls-1" d="M1219.31,153.71q9.32-14.19,18.84-29.66c6.36-10.32,12.12-20.2,17.37-29.66s9.49-18,12.83-25.52a47.44,47.44,0,0,0,5-17.73,36.15,36.15,0,0,0-8-23.87,59.76,59.76,0,0,0-21.07-15.86,110,110,0,0,0-29.81-8.77A226.37,226.37,0,0,0,1179.8,0a509.35,509.35,0,0,0-116.16,12.47,534,534,0,0,0-97.08,32.07,455,455,0,0,0-77,43.14,482.53,482.53,0,0,0-56.12,45.7A240.67,240.67,0,0,0,799.17,173q-11.58,17.76-11.58,25.56a27.41,27.41,0,0,0,5.61,17.33,39.87,39.87,0,0,0,12.3,11,21,21,0,0,0,12.29,3.2c3.6-.39,5.61-2.3,5.61-5.79,0-6.72,4.21-16.46,12.65-29.3a265,265,0,0,1,36-42A494.21,494.21,0,0,1,1089.23,31.8a383.84,383.84,0,0,1,98-12,71.64,71.64,0,0,1,24.63,3.38,31.32,31.32,0,0,1,13.23,8.38,21.87,21.87,0,0,1,5.21,11,69.71,69.71,0,0,1,.94,11.18A52.41,52.41,0,0,1,1226,73.32a250.62,250.62,0,0,1-13.59,26.5q-8.4,14.39-18.65,29.63t-20.25,28.76a579.12,579.12,0,0,0-79.09,15.1,315.3,315.3,0,0,0-59.11,21.82,129.07,129.07,0,0,0-37.1,26.32q-12.87,14-12.87,28.51a32,32,0,0,0,3.59,15.5,26.86,26.86,0,0,0,7.8,9.49,10.3,10.3,0,0,0,7.84,2.26q3.6-.75,3.6-6.36c0-3.6,3.16-9,9.49-15.86a157.5,157.5,0,0,1,27.61-22.36,309.47,309.47,0,0,1,44.62-24.09,382.1,382.1,0,0,1,61.55-21.1q-22.4,29.12-44.94,57.27t-40.66,54.65a360.74,360.74,0,0,0-29.27,50.51,106.86,106.86,0,0,0-11.18,44.58,61.73,61.73,0,0,0,2.62,18.27,54.17,54.17,0,0,0,6.91,14.92,35.59,35.59,0,0,0,9.88,10.06,20.18,20.18,0,0,0,11.54,3.6,8.15,8.15,0,0,0,6-2.23,11.34,11.34,0,0,0,3-5.61,44.39,44.39,0,0,0,.93-7.44v-7.84q0-20.13,12.87-47.74a554.28,554.28,0,0,1,32.83-59.5q19.92-31.86,44.18-66.19t47.35-67.88a510.54,510.54,0,0,1,78.31-5.61,54.82,54.82,0,0,1,16.21,2.05,100.71,100.71,0,0,1,10.79,3.92,35,35,0,0,0,5.75,2.26c1.15.22,1.69-.75,1.69-3a24.56,24.56,0,0,0-7.44-17.19q-7.48-7.8-22.76-7.84-35.41,0-66.76,2.27Z"/><path class="cls-1" d="M516.27,325.63q-7.35,20.19-14.71,40.4H474.85V325.17l5.41-5.41V309.53h-2.83l3.16-3.44c2.9-20.49,11-37.72,24.78-51.4v-5.6h-2.3v-3.52h2.55V227.82l4.74-7.37,5.91-90.79,5.9,90.79,4.74,7.37v17.75h2.55v3.52h-2.3v5.6a83.49,83.49,0,0,1,10.37,12.51Q526.91,296.42,516.27,325.63Z"/><path class="cls-1" d="M557.68,325.17V366H507.23q4.51-12.46,9-24.92Q528.65,307,541,272.87a93.71,93.71,0,0,1,10.9,33.22l3.15,3.44h-2.81v10.23Z"/><path class="cls-2" d="M0,163.54H15.34v54.18c10.55-28.29,39.32-59.94,82.48-59.94,48.43,0,74.8,29.25,85.35,63.78,12-31.65,42.68-63.78,86.79-63.78,55.15,0,91.59,37.4,91.59,103.1V405.21H346.2V262.32c0-58.5-30.68-90.15-77.2-90.15-41.23,0-80.55,37.4-80.55,92.06v141H173.1V261.84c0-57.55-31.17-89.67-76.72-89.67-42.2,0-81,40.28-81,92.54v140.5H0Z"/></g></g></svg>